<svg xmlns="http://www.w3.org/2000/svg" viewBox="0 0 209.769 106.768"><defs><style>.cls-1{font-size:55.592px;font-family:AgencyFB-Bold, Agency FB;font-weight:700;}.cls-2{fill:#bf0040;}.cls-3{fill:none;stroke:#000;stroke-linecap:round;stroke-linejoin:round;stroke-width:2px;}</style></defs><g id="Layer_2" data-name="Layer 2"><g id="Layer_1-2" data-name="Layer 1"><text class="cls-1" transform="translate(97.724 49.032) scale(1.518 1)">Vax<tspan class="cls-2"><tspan x="0" y="46.606">Dist</tspan></tspan></text><path d="M14.036,45.582c-.788-1.414-1.478-2.639-2.154-3.871a1.418,1.418,0,0,1,1.632-2.029,2.38,2.38,0,0,1,1.076.89c.718,1.111,1.351,2.277,2.064,3.5.339-.109.683-.235,1.036-.33,1.641-.438,3.274-.914,4.931-1.279.644-.141.825-.386.8-1.013-.048-1.109-.038-2.222,0-3.332.036-1.072.575-1.6,1.529-1.594A1.2,1.2,0,0,1,26.316,37.7c.1,1.212.121,2.434.106,3.651a.883.883,0,0,0,.794,1.047c1.836.442,3.66.944,5.478,1.457.439.124.631-.02.829-.378.537-.97,1.063-1.95,1.68-2.868a2.543,2.543,0,0,1,1.143-.929,1.119,1.119,0,0,1,1.458.562,2.293,2.293,0,0,1,.041,1.594A24.2,24.2,0,0,1,36.2,44.815c-.276.452-.339.747.092,1.173,1.381,1.367,2.72,2.777,4.048,4.2a.686.686,0,0,0,1.03.139,22.651,22.651,0,0,1,2.983-1.635,2.132,2.132,0,0,1,1.657.042c.925.532.855,1.627-.136,2.344A29.343,29.343,0,0,1,42.9,52.891c-.5.277-.578.532-.415,1.087.576,1.967,1.071,3.958,1.619,6.025H46.45c.542,0,1.085-.021,1.625.007a1.645,1.645,0,0,1,1.761,1.544c.011.826-.629,1.444-1.694,1.5-1.107.059-2.22.039-3.33.014a.941.941,0,0,0-1.056.872c-.41,1.873-.863,3.737-1.253,5.614a.891.891,0,0,0,.314.744c.834.549,1.721,1.017,2.574,1.539.343.209.791.414.935.736a2.485,2.485,0,0,1,.189,1.5,1.05,1.05,0,0,1-1.271.759,4.02,4.02,0,0,1-1.143-.342c-.911-.475-1.819-.965-2.676-1.527-.5-.331-.779-.22-1.16.174Q38.318,75.156,36.3,77.1a.735.735,0,0,0-.16,1.1c.526.818,1,1.672,1.465,2.526a3.475,3.475,0,0,1,.415,1.043,1.41,1.41,0,0,1-.86,1.789,1.462,1.462,0,0,1-1.861-.742,24.771,24.771,0,0,1-1.519-2.765c-.361-.8-.809-.952-1.626-.7-1.725.535-3.485.955-5.215,1.472a.888.888,0,0,0-.482.654c-.057.863-.018,1.733-.021,2.6a9.042,9.042,0,0,1-.034,1.055c-.137,1.135-.735,1.759-1.588,1.689s-1.384-.751-1.4-1.877-.015-2.276,0-3.415c0-.391-.056-.632-.52-.749-2.066-.523-4.119-1.095-6.294-1.682-.522.945-1.048,1.906-1.583,2.863-.426.762-.687,1.691-1.855,1.647a1.289,1.289,0,0,1-1.374-1.643,6.539,6.539,0,0,1,.633-1.564c.49-.929,1.031-1.832,1.586-2.81-1.588-1.581-3.151-3.153-4.744-4.694a.773.773,0,0,0-.69,0c-.885.466-1.739.99-2.614,1.475A4.41,4.41,0,0,1,5,74.8a1.35,1.35,0,0,1-1.709-.7,1.28,1.28,0,0,1,.439-1.783c.812-.58,1.7-1.053,2.555-1.568.392-.235.79-.461,1.241-.724-.476-1.837-.949-3.66-1.42-5.483a4.209,4.209,0,0,1-.119-.552c-.079-.689-.426-.971-1.143-.926-.917.056-1.84.024-2.761.007a5.108,5.108,0,0,1-.96-.123A1.311,1.311,0,0,1,0,61.554a1.269,1.269,0,0,1,1.112-1.391A27.008,27.008,0,0,1,4.1,60.009c1.636-.022,1.633-.006,2.046-1.58.405-1.54.791-3.086,1.238-4.614A.649.649,0,0,0,7,52.92c-.97-.535-1.927-1.095-2.878-1.664-1.022-.61-1.267-1.348-.762-2.217a1.516,1.516,0,0,1,2.211-.371c.994.548,1.958,1.153,2.964,1.676a.881.881,0,0,0,.811-.069C10.928,48.734,12.475,47.155,14.036,45.582ZM8.763,61.529a16.15,16.15,0,1,0,32.3.163A16.381,16.381,0,0,0,24.87,45.24,16.433,16.433,0,0,0,8.763,61.529Z"/><path d="M78.919,21.039c1.156-.651,2.282-1.3,3.417-1.923.957-.53,1.784-.385,2.192.362.434.8.181,1.527-.758,2.093s-1.861,1.1-2.809,1.625a.747.747,0,0,0-.458.961q.654,2.676,1.237,5.369a1.179,1.179,0,0,0,1.327,1.106c.838-.028,1.678-.011,2.516,0a4.935,4.935,0,0,1,1.122.1c.659.169,1.183.49,1.226,1.293a1.28,1.28,0,0,1-1.159,1.42,10,10,0,0,1-2.17.12c-2.44-.059-2.453-.075-3.055,2.257-.39,1.512-.737,3.036-1.106,4.568,1.163.688,2.28,1.341,3.389,2.008a1.572,1.572,0,0,1,.936,1.728,1.531,1.531,0,0,1-2.352.881c-1.02-.556-2.025-1.142-3.018-1.745a.615.615,0,0,0-.908.1c-1.5,1.585-3.029,3.152-4.593,4.773.5.875,1,1.733,1.493,2.593.2.352.412.7.578,1.069a1.43,1.43,0,0,1-.52,2.036,1.507,1.507,0,0,1-2.073-.672q-.879-1.459-1.724-2.94a.694.694,0,0,0-.917-.385c-1.781.449-3.575.845-5.368,1.244a1,1,0,0,0-.881,1.145c.025,1.083.022,2.169-.017,3.252-.035.98-.454,1.522-1.159,1.623a1.375,1.375,0,0,1-1.753-1.4c-.071-1.162-.079-2.329-.075-3.494a1.024,1.024,0,0,0-.916-1.13c-1.79-.408-3.58-.819-5.361-1.266a.626.626,0,0,0-.838.367q-.824,1.491-1.718,2.943a1.513,1.513,0,0,1-2.133.69,1.462,1.462,0,0,1-.437-2.127c.562-1.049,1.191-2.063,1.736-3.121a.876.876,0,0,0-.1-.793c-1.358-1.465-2.766-2.884-4.13-4.343A.7.7,0,0,0,46.54,43.3c-.944.579-1.908,1.129-2.881,1.659a1.651,1.651,0,0,1-1.908-.018,1.411,1.411,0,0,1,.222-2.392A35.608,35.608,0,0,1,45.118,40.7c.537-.281.544-.55.389-1.079-.5-1.707-.969-3.426-1.358-5.161a.93.93,0,0,0-1.089-.875c-1.188.012-2.382.016-3.563-.086a1.387,1.387,0,0,1-1.439-1.371,1.37,1.37,0,0,1,1.349-1.449,20.766,20.766,0,0,1,3.318-.1c.888.037,1.32-.241,1.494-1.155.339-1.777.776-3.537,1.211-5.293a.7.7,0,0,0-.431-.9c-1.036-.585-2.069-1.178-3.077-1.808a1.235,1.235,0,0,1-.651-1.517,2.128,2.128,0,0,1,1.039-1.1,1.945,1.945,0,0,1,1.358.254c1.036.523,2.015,1.159,3.045,1.7a.857.857,0,0,0,.79-.067C49.028,19.16,50.516,17.6,52.055,16c-.535-.962-1.137-2.017-1.71-3.087a4.386,4.386,0,0,1-.443-1.124,1.526,1.526,0,0,1,.944-1.694,1.638,1.638,0,0,1,1.775.816c.588,1.062,1.182,2.122,1.828,3.149a.879.879,0,0,0,.75.3c1.813-.43,3.61-.927,5.419-1.373a.942.942,0,0,0,.853-1.062c-.028-1.028.01-2.058.013-3.087a2.028,2.028,0,0,1,1.078-2.015,1.518,1.518,0,0,1,1.843,1.612c.045,1.11.038,2.223.008,3.333a1.19,1.19,0,0,0,1.11,1.394c1.772.354,3.53.787,5.284,1.226a.627.627,0,0,0,.844-.349c.58-1.038,1.213-2.047,1.806-3.078a1.546,1.546,0,0,1,1.663-.844,1.422,1.422,0,0,1,.895,1.626,3.651,3.651,0,0,1-.329.992c-.218.464-.489.9-.728,1.358-.348.661-1.009,1.364-.937,1.979.067.577.907,1.069,1.421,1.585,1.088,1.094,2.185,2.179,3.28,3.266A1.178,1.178,0,0,0,78.919,21.039ZM46.855,32.045A16.51,16.51,0,0,0,62.969,48.43a16.6,16.6,0,0,0,16.18-16.343,16.148,16.148,0,1,0-32.294-.042Z"/><path d="M77.607,88.668c.47.849.866,1.526,1.224,2.221a1.484,1.484,0,1,1-2.569,1.456c-.374-.595-.68-1.234-1.074-1.815-.134-.2-.481-.43-.666-.384-1.383.339-2.749.743-4.155,1.137,0,.811.011,1.568-.006,2.324a3.812,3.812,0,0,1-.119.877,1.325,1.325,0,0,1-1.48,1.1A1.307,1.307,0,0,1,67.443,94.3c-.086-.8-.017-1.626-.09-2.434a.927.927,0,0,0-.447-.689c-1.207-.39-2.433-.727-3.667-1.022a.849.849,0,0,0-.676.343c-.4.576-.711,1.212-1.086,1.806-.59.933-1.329,1.185-2.106.752-.812-.452-.971-1.245-.454-2.254.024-.048.049-.1.073-.145.328-.642.987-1.34.892-1.912-.1-.591-.935-1.054-1.436-1.585-.575-.61-1.136-1.233-1.712-1.86-.839.46-1.533.869-2.253,1.228a1.511,1.511,0,0,1-1.938-.207,1.4,1.4,0,0,1,.317-2.234,16.83,16.83,0,0,1,1.875-1.126c.414-.22.616-.475.491-.958-.3-1.177-.552-2.371-.917-3.529a1.178,1.178,0,0,0-.846-.561c-.638-.089-1.3-.013-1.946-.04-1.043-.043-1.705-.618-1.729-1.465-.026-.868.571-1.422,1.658-1.5a18.517,18.517,0,0,0,2.1-.1,1.266,1.266,0,0,0,.816-.718c.345-1.05.565-2.141.855-3.21a.687.687,0,0,0-.415-.905A19.213,19.213,0,0,1,52.991,68.9c-.854-.577-1.053-1.261-.642-2a1.447,1.447,0,0,1,2.1-.544c.725.355,1.419.773,2.269,1.241,1-1.033,2.034-2.063,3.006-3.149a1.068,1.068,0,0,0,.057-.923c-.25-.594-.642-1.127-.929-1.709a1.5,1.5,0,0,1,.5-2.125,1.464,1.464,0,0,1,2.067.673c.4.613.721,1.275,1.147,1.866a.912.912,0,0,0,.749.323c1.211-.274,2.413-.6,3.6-.964a.851.851,0,0,0,.435-.626c.061-.727,0-1.463.048-2.192.063-1.034.614-1.642,1.435-1.661a1.6,1.6,0,0,1,1.519,1.69c.042.675-.05,1.365.053,2.028a1.225,1.225,0,0,0,.641.849,29.537,29.537,0,0,0,3.373.857,1.023,1.023,0,0,0,.8-.392c.4-.542.678-1.169,1.046-1.735a1.485,1.485,0,1,1,2.566,1.461,14.019,14.019,0,0,1-.875,1.555.779.779,0,0,0,.119,1.125c.9.9,1.772,1.827,2.694,2.7a.823.823,0,0,0,.733.06c.638-.291,1.227-.687,1.86-.989a1.449,1.449,0,0,1,1.979.526,1.381,1.381,0,0,1-.454,1.928c-.787.564-1.643,1.03-2.535,1.579.376,1.366.738,2.746,1.15,4.111a.752.752,0,0,0,.55.413c.619.043,1.243-.01,1.865-.016.992-.009,2.146.492,2.022,1.576a1.657,1.657,0,0,1-1.734,1.449c-.7.028-1.41-.031-2.11.023a.827.827,0,0,0-.612.429c-.369,1.24-.7,2.493-.981,3.756a.9.9,0,0,0,.316.749c.614.438,1.305.766,1.934,1.186a1.411,1.411,0,0,1,.613,2.006,1.47,1.47,0,0,1-2.043.551c-.61-.287-1.165-.693-1.78-.968a.908.908,0,0,0-.8.083C79.676,86.655,78.656,87.663,77.607,88.668ZM68.931,64.674A11.609,11.609,0,0,0,57.146,76.349c.06,6.676,4.942,11.9,11.672,11.915,6.763.011,11.774-5.171,11.744-12.09A11.546,11.546,0,0,0,68.931,64.674Z"/><path d="M36.614,66.109a5.752,5.752,0,0,1-5.927,5.849,5.879,5.879,0,0,1-5.826-5.848,5.988,5.988,0,0,1,5.9-6.078A5.837,5.837,0,0,1,36.614,66.109Zm-5.808-3.078c-1.843-.113-2.885,1.407-3.005,3.039a2.9,2.9,0,0,0,2.917,2.956A2.831,2.831,0,0,0,33.7,66.159,2.9,2.9,0,0,0,30.806,63.031Z"/><path d="M23.439,57.142a4.459,4.459,0,0,1-4.414,4.474,4.562,4.562,0,0,1-4.41-4.439,4.423,4.423,0,0,1,4.375-4.415A4.324,4.324,0,0,1,23.439,57.142Zm-4.364-1.473a1.489,1.489,0,1,0-.01,2.977A1.492,1.492,0,0,0,20.509,57.2,1.469,1.469,0,0,0,19.075,55.669Z"/><path d="M27.817,54.212a1.452,1.452,0,0,1-1.453-1.5,1.423,1.423,0,0,1,1.463-1.4,1.494,1.494,0,0,1,1.519,1.442A1.525,1.525,0,0,1,27.817,54.212Z"/><path d="M20.5,67.59a1.4,1.4,0,0,1-1.428,1.44,1.457,1.457,0,0,1-1.5-1.474,1.475,1.475,0,0,1,1.454-1.441A1.408,1.408,0,0,1,20.5,67.59Z"/><path d="M62.993,36.432a5.87,5.87,0,1,1,5.66,5.921A5.9,5.9,0,0,1,62.993,36.432Zm5.838,2.986a2.947,2.947,0,1,0-2.946-2.945A2.984,2.984,0,0,0,68.831,39.418Z"/><path d="M57.094,32.067a4.474,4.474,0,1,1,.16-8.946,4.475,4.475,0,0,1-.16,8.946Zm.045-2.953a1.587,1.587,0,0,0,1.493-1.576,1.5,1.5,0,1,0-2.992,0A1.613,1.613,0,0,0,57.139,29.114Z"/><path d="M65.928,24.558a1.4,1.4,0,0,1-1.46-1.481,1.5,1.5,0,0,1,1.454-1.453A1.518,1.518,0,0,1,67.4,23.151,1.422,1.422,0,0,1,65.928,24.558Z"/><path d="M57.189,36.514a1.425,1.425,0,0,1,1.44,1.442,1.491,1.491,0,0,1-2.982-.027A1.442,1.442,0,0,1,57.189,36.514Z"/><path d="M64.464,79.3A1.487,1.487,0,0,1,65.941,80.8a1.667,1.667,0,0,1-1.483,1.594A1.537,1.537,0,0,1,63,80.785,1.433,1.433,0,0,1,64.464,79.3Z"/><path d="M73.277,79.314a1.325,1.325,0,0,1,1.393-1.439A1.424,1.424,0,0,1,76.2,79.3a1.519,1.519,0,0,1-1.429,1.481A1.424,1.424,0,0,1,73.277,79.314Z"/><path d="M63.035,70.475a1.51,1.51,0,0,1,1.422,1.559,1.461,1.461,0,1,1-2.914-.162A1.509,1.509,0,0,1,63.035,70.475Z"/><path d="M70.344,71.93a1.4,1.4,0,0,1-1.5-1.431,1.5,1.5,0,0,1,1.494-1.48,1.561,1.561,0,0,1,1.476,1.523A1.427,1.427,0,0,1,70.344,71.93Z"/><path class="cls-3" d="M85.553,67.4l-.975.081"/></g></g></svg>